<svg width="42" height="50" viewBox="0 0 42 50" fill="none" xmlns="http://www.w3.org/2000/svg">
<path d="M2.52015 50H34.4399C35.8315 50 36.9597 48.8808 36.9597 47.4998V8.33321H40.32C41.2479 8.33321 42 7.58705 42 6.66656V4.16679C41.9969 1.86653 40.1182 0.00267029 37.7999 0H2.52015C1.12818 0 0 1.11923 0 2.50015V47.4998C0 48.8808 1.12818 50 2.52015 50ZM37.7999 1.66664C39.1915 1.66664 40.32 2.78587 40.32 4.16679V6.66656H6.71988V4.16679C6.7168 3.26195 6.41418 2.3838 5.85817 1.66664H37.7999ZM1.67997 2.50015C1.67997 2.03972 2.05603 1.66664 2.52015 1.66664C3.91173 1.66664 5.03991 2.78587 5.03991 4.16679V6.66656C5.03991 7.58705 5.79203 8.33321 6.71988 8.33321H35.2797V47.4998C35.2797 47.9603 34.9037 48.3334 34.4399 48.3334H2.52015C2.05603 48.3334 1.67997 47.9603 1.67997 47.4998V2.50015Z" fill="white"/>
<path d="M6.71985 20.8332H11.7598C12.6876 20.8332 13.4401 20.0871 13.4401 19.1666V18.3334C13.4401 17.873 13.0637 17.4999 12.5999 17.4999C12.1362 17.4999 11.7598 17.873 11.7598 18.3334V19.1666H6.71985V14.1667H9.24C9.70373 14.1667 10.0798 13.7936 10.0798 13.3335C10.0798 12.8731 9.70373 12.5 9.24 12.5H6.71985C5.792 12.5 5.03988 13.2462 5.03988 14.1667V19.1666C5.03988 20.0871 5.792 20.8332 6.71985 20.8332Z" fill="white"/>
<path d="M6.71985 32.5H11.7598C12.6876 32.5 13.4401 31.7539 13.4401 30.8334V25.8334C13.4401 24.913 12.6876 24.1664 11.7598 24.1664H6.71985C5.792 24.1664 5.03988 24.913 5.03988 25.8334V30.8334C5.03988 31.7539 5.792 32.5 6.71985 32.5ZM6.71985 25.8334H11.7598V30.8334H6.71985V25.8334Z" fill="white"/>
<path d="M6.71985 44.1666H11.7598C12.6876 44.1666 13.4401 43.4204 13.4401 42.5V37.5C13.4401 36.5795 12.6876 35.8334 11.7598 35.8334H6.71985C5.792 35.8334 5.03988 36.5795 5.03988 37.5V42.5C5.03988 43.4204 5.792 44.1666 6.71985 44.1666ZM6.71985 37.5H11.7598V42.5H6.71985V37.5Z" fill="white"/>
<path d="M16.8 15.8333H20.9997C21.4639 15.8333 21.8399 15.4602 21.8399 15.0002C21.8399 14.5398 21.4639 14.1667 20.9997 14.1667H16.8C16.3359 14.1667 15.9598 14.5398 15.9598 15.0002C15.9598 15.4602 16.3359 15.8333 16.8 15.8333Z" fill="white"/>
<path d="M24.3597 15.8333H32.76C33.2237 15.8333 33.5998 15.4602 33.5998 15.0002C33.5998 14.5398 33.2237 14.1667 32.76 14.1667H24.3597C23.896 14.1667 23.5199 14.5398 23.5199 15.0002C23.5199 15.4602 23.896 15.8333 24.3597 15.8333Z" fill="white"/>
<path d="M16.8 19.1666H25.1999C25.6636 19.1666 26.04 18.7935 26.04 18.3335C26.04 17.873 25.6636 17.5 25.1999 17.5H16.8C16.3359 17.5 15.9598 17.873 15.9598 18.3335C15.9598 18.7935 16.3359 19.1666 16.8 19.1666Z" fill="white"/>
<path d="M32.7599 17.5H28.5598C28.0961 17.5 27.72 17.873 27.72 18.3335C27.72 18.7935 28.0961 19.1666 28.5598 19.1666H32.7599C33.2237 19.1666 33.5997 18.7935 33.5997 18.3335C33.5997 17.873 33.2237 17.5 32.7599 17.5Z" fill="white"/>
<path d="M16.8 27.5002H20.9997C21.4639 27.5002 21.8399 27.1271 21.8399 26.6667C21.8399 26.2066 21.4639 25.8335 20.9997 25.8335H16.8C16.3359 25.8335 15.9598 26.2066 15.9598 26.6667C15.9598 27.1271 16.3359 27.5002 16.8 27.5002Z" fill="white"/>
<path d="M32.76 25.8335H24.3597C23.896 25.8335 23.5199 26.2066 23.5199 26.6667C23.5199 27.1271 23.896 27.5002 24.3597 27.5002H32.76C33.2237 27.5002 33.5998 27.1271 33.5998 26.6667C33.5998 26.2066 33.2237 25.8335 32.76 25.8335Z" fill="white"/>
<path d="M16.8 30.8335H25.1999C25.6636 30.8335 26.04 30.4604 26.04 29.9999C26.04 29.5399 25.6636 29.1668 25.1999 29.1668H16.8C16.3359 29.1668 15.9598 29.5399 15.9598 29.9999C15.9598 30.4604 16.3359 30.8335 16.8 30.8335Z" fill="white"/>
<path d="M32.7599 29.1668H28.5598C28.0961 29.1668 27.72 29.5399 27.72 29.9999C27.72 30.4604 28.0961 30.8335 28.5598 30.8335H32.7599C33.2237 30.8335 33.5997 30.4604 33.5997 29.9999C33.5997 29.5399 33.2237 29.1668 32.7599 29.1668Z" fill="white"/>
<path d="M16.8 39.1667H20.9997C21.4639 39.1667 21.8399 38.7936 21.8399 38.3335C21.8399 37.8731 21.4639 37.5 20.9997 37.5H16.8C16.3359 37.5 15.9598 37.8731 15.9598 38.3335C15.9598 38.7936 16.3359 39.1667 16.8 39.1667Z" fill="white"/>
<path d="M32.76 37.5H24.3597C23.896 37.5 23.5199 37.8731 23.5199 38.3335C23.5199 38.7936 23.896 39.1667 24.3597 39.1667H32.76C33.2237 39.1667 33.5998 38.7936 33.5998 38.3335C33.5998 37.8731 33.2237 37.5 32.76 37.5Z" fill="white"/>
<path d="M16.8 42.4999H25.1999C25.6636 42.4999 26.04 42.1269 26.04 41.6668C26.04 41.2064 25.6636 40.8333 25.1999 40.8333H16.8C16.3359 40.8333 15.9598 41.2064 15.9598 41.6668C15.9598 42.1269 16.3359 42.4999 16.8 42.4999Z" fill="white"/>
<path d="M32.7599 40.8333H28.5598C28.0961 40.8333 27.72 41.2064 27.72 41.6668C27.72 42.1269 28.0961 42.4999 28.5598 42.4999H32.7599C33.2237 42.4999 33.5997 42.1269 33.5997 41.6668C33.5997 41.2064 33.2237 40.8333 32.7599 40.8333Z" fill="white"/>
<path d="M8.99388 15.2443C8.66434 14.9285 8.14024 14.933 7.81609 15.2542C7.49233 15.5758 7.48771 16.0954 7.80609 16.4227L9.48606 18.0893C9.64372 18.2453 9.85713 18.3335 10.0798 18.3335H10.1497C10.3958 18.3129 10.6204 18.1862 10.7638 17.9867L14.9636 12.1533C15.1381 11.911 15.1689 11.5948 15.0443 11.324C14.9201 11.0527 14.6594 10.8681 14.3606 10.8395C14.0619 10.8109 13.7704 10.9429 13.5962 11.1851L9.97325 16.2175L8.99388 15.2443Z" fill="white"/>
</svg>
